HIERARCHY
ROOT Hips
{
    OFFSET 0.000 91.545 0.000
    CHANNELS 6 Xposition Yposition Zposition Yrotation Xrotation Zrotation
    JOINT RightUpLeg
    {
        OFFSET -9.250 -0.000 0.000
        CHANNELS 3 Yrotation Xrotation Zrotation
        JOINT RightLeg
        {
            OFFSET 0.000 -41.927 0.000
            CHANNELS 3 Yrotation Xrotation Zrotation
            JOINT RightFoot
            {
                OFFSET 0.000 -41.927 0.000
                CHANNELS 3 Yrotation Xrotation Zrotation
                End Site
                {
                    OFFSET 0.000 -7.690 15.750
                }
            }
        }
    }
    JOINT LeftUpLeg
    {
        OFFSET 9.250 -0.000 0.000
        CHANNELS 3 Yrotation Xrotation Zrotation
        JOINT LeftLeg
        {
            OFFSET 0.000 -41.927 0.000
            CHANNELS 3 Yrotation Xrotation Zrotation
            JOINT LeftFoot
            {
                OFFSET 0.000 -41.927 0.000
                CHANNELS 3 Yrotation Xrotation Zrotation
                End Site
                {
                    OFFSET 0.000 -7.690 15.750
                }
            }
        }
    }
    JOINT Spine
    {
        OFFSET 0.000 7.818 0.000
        CHANNELS 3 Yrotation Xrotation Zrotation
        JOINT Spine1
        {
            OFFSET 0.000 17.310 0.000
            CHANNELS 3 Yrotation Xrotation Zrotation
            JOINT Spine2
            {
                OFFSET 0.000 12.285 0.000
                CHANNELS 3 Yrotation Xrotation Zrotation
                JOINT Neck
                {
                    OFFSET 0.000 18.427 0.000
                    CHANNELS 3 Yrotation Xrotation Zrotation
                    JOINT Neck1
                    {
                        OFFSET 0.000 4.735 0.000
                        CHANNELS 3 Yrotation Xrotation Zrotation
                        JOINT Head
                        {
                            OFFSET 0.000 4.735 0.000
                            CHANNELS 3 Yrotation Xrotation Zrotation
                            End Site
                            {
                                OFFSET 0.000 15.940 0.000
                            }
                        }
                    }
                }
                JOINT RightShoulder
                {
                    OFFSET -2.792 12.843 0.000
                    CHANNELS 3 Yrotation Xrotation Zrotation
                    JOINT RightArm
                    {
                        OFFSET -13.208 0.000 0.000
                        CHANNELS 3 Yrotation Xrotation Zrotation
                        JOINT RightForeArm
                        {
                            OFFSET -27.800 0.000 0.000
                            CHANNELS 3 Yrotation Xrotation Zrotation
                            JOINT RightHand
                            {
                                OFFSET -22.300 0.000 0.000
                                CHANNELS 3 Yrotation Xrotation Zrotation
                                JOINT RightHandThumb1
                                {
                                    OFFSET -1.565 0.119 1.961
                                    CHANNELS 3 Yrotation Xrotation Zrotation
                                    JOINT RightHandThumb2
                                    {
                                        OFFSET -2.315 0.000 0.000
                                        CHANNELS 3 Yrotation Xrotation Zrotation
                                        JOINT RightHandThumb3
                                        {
                                            OFFSET -1.608 0.000 0.000
                                            CHANNELS 3 Yrotation Xrotation Zrotation
                                            End Site
                                            {
                                                OFFSET -1.379 0.000 0.000
                                            }
                                        }
                                    }
                                }
                                JOINT RightInHandIndex
                                {
                                    OFFSET -2.026 0.320 1.244
                                    CHANNELS 3 Yrotation Xrotation Zrotation
                                    JOINT RightHandIndex1
                                    {
                                        OFFSET -3.279 -0.057 0.628
                                        CHANNELS 3 Yrotation Xrotation Zrotation
                                        JOINT RightHandIndex2
                                        {
                                            OFFSET -2.275 0.000 0.000
                                            CHANNELS 3 Yrotation Xrotation Zrotation
                                            JOINT RightHandIndex3
                                            {
                                                OFFSET -1.290 0.000 0.000
                                                CHANNELS 3 Yrotation Xrotation Zrotation
                                                End Site
                                                {
                                                    OFFSET -1.135 0.000 0.000
                                                }
                                            }
                                        }
                                    }
                                }
                                JOINT RightInHandMiddle
                                {
                                    OFFSET -2.126 0.325 0.476
                                    CHANNELS 3 Yrotation Xrotation Zrotation
                                    JOINT RightHandMiddle1
                                    {
                                        OFFSET -3.252 -0.053 0.197
                                        CHANNELS 3 Yrotation Xrotation Zrotation
                                        JOINT RightHandMiddle2
                                        {
                                            OFFSET -2.483 0.000 0.000
                                            CHANNELS 3 Yrotation Xrotation Zrotation
                                            JOINT RightHandMiddle3
                                            {
                                                OFFSET -1.556 0.000 0.000
                                                CHANNELS 3 Yrotation Xrotation Zrotation
                                                End Site
                                                {
                                                    OFFSET -1.241 0.000 0.000
                                                }
                                            }
                                        }
                                    }
                                }
                                JOINT RightInHandRing
                                {
                                    OFFSET -2.115 0.338 -0.081
                                    CHANNELS 3 Yrotation Xrotation Zrotation
                                    JOINT RightHandRing1
                                    {
                                        OFFSET -2.913 -0.014 -0.301
                                        CHANNELS 3 Yrotation Xrotation Zrotation
                                        JOINT RightHandRing2
                                        {
                                            OFFSET -2.164 0.000 0.000
                                            CHANNELS 3 Yrotation Xrotation Zrotation
                                            JOINT RightHandRing3
                                            {
                                                OFFSET -1.501 0.000 0.000
                                                CHANNELS 3 Yrotation Xrotation Zrotation
                                                End Site
                                                {
                                                    OFFSET -1.167 0.000 0.000
                                                }
                                            }
                                        }
                                    }
                                }
                                JOINT RightInHandPinky
                                {
                                    OFFSET -1.987 0.295 -0.755
                                    CHANNELS 3 Yrotation Xrotation Zrotation
                                    JOINT RightHandPinky1
                                    {
                                        OFFSET -2.603 -0.014 -0.685
                                        CHANNELS 3 Yrotation Xrotation Zrotation
                                        JOINT RightHandPinky2
                                        {
                                            OFFSET -1.733 0.000 0.000
                                            CHANNELS 3 Yrotation Xrotation Zrotation
                                            JOINT RightHandPinky3
                                            {
                                                OFFSET -1.095 0.000 0.000
                                                CHANNELS 3 Yrotation Xrotation Zrotation
                                                End Site
                                                {
                                                    OFFSET -1.034 0.000 0.000
                                                }
                                            }
                                        }
                                    }
                                }
                            }
                        }
                    }
                }
                JOINT LeftShoulder
                {
                    OFFSET 2.792 12.843 0.000
                    CHANNELS 3 Yrotation Xrotation Zrotation
                    JOINT LeftArm
                    {
                        OFFSET 13.208 0.000 0.000
                        CHANNELS 3 Yrotation Xrotation Zrotation
                        JOINT LeftForeArm
                        {
                            OFFSET 27.800 0.000 0.000
                            CHANNELS 3 Yrotation Xrotation Zrotation
                            JOINT LeftHand
                            {
                                OFFSET 22.300 0.000 0.000
                                CHANNELS 3 Yrotation Xrotation Zrotation
                                JOINT LeftHandThumb1
                                {
                                    OFFSET 1.565 0.119 1.961
                                    CHANNELS 3 Yrotation Xrotation Zrotation
                                    JOINT LeftHandThumb2
                                    {
                                        OFFSET 2.315 0.000 0.000
                                        CHANNELS 3 Yrotation Xrotation Zrotation
                                        JOINT LeftHandThumb3
                                        {
                                            OFFSET 1.608 0.000 0.000
                                            CHANNELS 3 Yrotation Xrotation Zrotation
                                            End Site
                                            {
                                                OFFSET 1.379 0.000 0.000
                                            }
                                        }
                                    }
                                }
                                JOINT LeftInHandIndex
                                {
                                    OFFSET 2.026 0.320 1.244
                                    CHANNELS 3 Yrotation Xrotation Zrotation
                                    JOINT LeftHandIndex1
                                    {
                                        OFFSET 3.279 -0.057 0.628
                                        CHANNELS 3 Yrotation Xrotation Zrotation
                                        JOINT LeftHandIndex2
                                        {
                                            OFFSET 2.275 0.000 0.000
                                            CHANNELS 3 Yrotation Xrotation Zrotation
                                            JOINT LeftHandIndex3
                                            {
                                                OFFSET 1.290 0.000 0.000
                                                CHANNELS 3 Yrotation Xrotation Zrotation
                                                End Site
                                                {
                                                    OFFSET 1.135 0.000 0.000
                                                }
                                            }
                                        }
                                    }
                                }
                                JOINT LeftInHandMiddle
                                {
                                    OFFSET 2.126 0.325 0.476
                                    CHANNELS 3 Yrotation Xrotation Zrotation
                                    JOINT LeftHandMiddle1
                                    {
                                        OFFSET 3.252 -0.053 0.197
                                        CHANNELS 3 Yrotation Xrotation Zrotation
                                        JOINT LeftHandMiddle2
                                        {
                                            OFFSET 2.483 0.000 0.000
                                            CHANNELS 3 Yrotation Xrotation Zrotation
                                            JOINT LeftHandMiddle3
                                            {
                                                OFFSET 1.556 0.000 0.000
                                                CHANNELS 3 Yrotation Xrotation Zrotation
                                                End Site
                                                {
                                                    OFFSET 1.241 0.000 0.000
                                                }
                                            }
                                        }
                                    }
                                }
                                JOINT LeftInHandRing
                                {
                                    OFFSET 2.115 0.338 -0.081
                                    CHANNELS 3 Yrotation Xrotation Zrotation
                                    JOINT LeftHandRing1
                                    {
                                        OFFSET 2.913 -0.014 -0.301
                                        CHANNELS 3 Yrotation Xrotation Zrotation
                                        JOINT LeftHandRing2
                                        {
                                            OFFSET 2.164 0.000 0.000
                                            CHANNELS 3 Yrotation Xrotation Zrotation
                                            JOINT LeftHandRing3
                                            {
                                                OFFSET 1.501 0.000 0.000
                                                CHANNELS 3 Yrotation Xrotation Zrotation
                                                End Site
                                                {
                                                    OFFSET 1.167 0.000 0.000
                                                }
                                            }
                                        }
                                    }
                                }
                                JOINT LeftInHandPinky
                                {
                                    OFFSET 1.987 0.295 -0.755
                                    CHANNELS 3 Yrotation Xrotation Zrotation
                                    JOINT LeftHandPinky1
                                    {
                                        OFFSET 2.603 -0.014 -0.685
                                        CHANNELS 3 Yrotation Xrotation Zrotation
                                        JOINT LeftHandPinky2
                                        {
                                            OFFSET 1.733 0.000 0.000
                                            CHANNELS 3 Yrotation Xrotation Zrotation
                                            JOINT LeftHandPinky3
                                            {
                                                OFFSET 1.095 0.000 0.000
                                                CHANNELS 3 Yrotation Xrotation Zrotation
                                                End Site
                                                {
                                                    OFFSET 1.034 0.000 0.000
                                                }
                                            }
                                        }
                                    }
                                }
                            }
                        }
                    }
                }
            }
        }
    }
}
MOTION
Frames: 4
Frame Time: 0.008333
0.485608 91.600525 0.222496 168.281586 179.690994 -179.915756 10.638549 -3.489990 0.004224 -0.000001 3.556062 -0.000018 8.631908 -2.284990 1.005691 15.297888 -4.725690 -0.794293 0.000003 9.699070 0.000000 7.801747 -3.761233 1.613426 -8.801491 -1.744423 -0.515157 7.400884 1.133225 0.354398 -3.298807 -0.216360 -0.297514 0.000007 10.424146 4.056188 -0.000001 12.161496 4.201053 -4.257410 8.876616 2.130464 0.916817 -0.532321 2.221880 34.219654 -18.586170 60.351669 81.713486 -21.191822 13.914168 -5.420098 -7.700835 -9.125170 21.860001 0.000000 30.000000 -10.000000 0.000000 0.000000 -10.000000 0.000000 0.000000 0.000000 0.000000 0.000000 2.550000 0.000000 20.000000 0.000000 0.000000 24.000000 0.000000 0.000000 20.000000 0.000000 0.000000 0.000000 0.000000 0.000000 20.000000 0.000000 0.000000 24.000000 0.000000 0.000000 20.000000 0.000000 0.000000 0.000000 -3.000000 0.000000 20.000000 0.000000 0.000000 24.000000 0.000000 0.000000 20.000000 0.000000 0.000000 0.000000 -8.830000 0.000000 20.000000 0.000000 0.000000 24.000000 0.000000 0.000000 20.000000 -2.813632 5.334376 1.566941 -5.045455 -2.213320 -76.376411 1.719642 -37.051659 -10.674185 -0.542044 28.328018 -2.432964 -21.860001 0.000000 -30.000000 10.000000 0.000000 0.000000 10.000000 0.000000 0.000000 0.000000 0.000000 0.000000 -2.550000 0.000000 -20.000000 0.000000 0.000000 -24.000000 0.000000 0.000000 -20.000000 0.000000 0.000000 0.000000 0.000000 0.000000 -20.000000 0.000000 0.000000 -24.000000 0.000000 0.000000 -20.000000 0.000000 0.000000 0.000000 3.000000 0.000000 -20.000000 0.000000 0.000000 -24.000000 0.000000 0.000000 -20.000000 0.000000 0.000000 0.000000 8.830000 0.000000 -20.000000 0.000000 0.000000 -24.000000 0.000000 0.000000 -20.000000 
0.491775 91.599762 0.217298 168.292526 179.710480 -179.915222 10.683407 -3.487993 0.002151 0.000007 3.585824 0.000007 8.576179 -2.298250 1.005571 15.248668 -4.713598 -0.794815 -0.000004 9.702941 -0.000002 7.842936 -3.760608 1.614877 -8.801372 -1.733982 -0.516406 7.407022 1.120025 0.341311 -3.284010 -0.218076 -0.308172 0.000001 10.420330 4.055461 0.000008 12.157061 4.200313 -4.272341 8.874063 2.127666 0.921273 -0.604297 2.214369 34.355106 -18.780928 60.230167 81.827133 -21.244738 13.866449 -5.432379 -7.762936 -9.274458 21.860001 0.000000 30.000000 -10.000000 0.000000 0.000000 -10.000000 0.000000 0.000000 0.000000 0.000000 0.000000 2.550000 0.000000 20.000000 0.000000 0.000000 24.000000 0.000000 0.000000 20.000000 0.000000 0.000000 0.000000 0.000000 0.000000 20.000000 0.000000 0.000000 24.000000 0.000000 0.000000 20.000000 0.000000 0.000000 0.000000 -3.000000 0.000000 20.000000 0.000000 0.000000 24.000000 0.000000 0.000000 20.000000 0.000000 0.000000 0.000000 -8.830000 0.000000 20.000000 0.000000 0.000000 24.000000 0.000000 0.000000 20.000000 -2.817678 5.324069 1.576027 -5.043330 -2.196204 -76.373619 1.727263 -37.068161 -10.660173 -0.551225 28.324411 -2.444931 -21.860001 0.000000 -30.000000 10.000000 0.000000 0.000000 10.000000 0.000000 0.000000 0.000000 0.000000 0.000000 -2.550000 0.000000 -20.000000 0.000000 0.000000 -24.000000 0.000000 0.000000 -20.000000 0.000000 0.000000 0.000000 0.000000 0.000000 -20.000000 0.000000 0.000000 -24.000000 0.000000 0.000000 -20.000000 0.000000 0.000000 0.000000 3.000000 0.000000 -20.000000 0.000000 0.000000 -24.000000 0.000000 0.000000 -20.000000 0.000000 0.000000 0.000000 8.830000 0.000000 -20.000000 0.000000 0.000000 -24.000000 0.000000 0.000000 -20.000000 
0.497304 91.598984 0.212171 168.304184 179.729004 -179.913818 10.675338 -3.489587 0.000966 -0.000008 3.621606 -0.000023 8.572698 -2.314429 1.003528 15.252646 -4.700314 -0.795979 0.000007 9.704561 0.000001 7.830448 -3.759564 1.619873 -8.801842 -1.723381 -0.518736 7.413387 1.107745 0.330225 -3.270179 -0.219297 -0.318088 0.000008 10.414592 4.053881 -0.000006 12.150349 4.198680 -4.284305 8.869833 2.124722 0.925778 -0.673774 2.206646 34.493793 -18.956886 60.110546 81.930023 -21.297955 13.818429 -5.432011 -7.805459 -9.437737 21.860001 0.000000 30.000000 -10.000000 0.000000 0.000000 -10.000000 0.000000 0.000000 0.000000 0.000000 0.000000 2.550000 0.000000 20.000000 0.000000 0.000000 24.000000 0.000000 0.000000 20.000000 0.000000 0.000000 0.000000 0.000000 0.000000 20.000000 0.000000 0.000000 24.000000 0.000000 0.000000 20.000000 0.000000 0.000000 0.000000 -3.000000 0.000000 20.000000 0.000000 0.000000 24.000000 0.000000 0.000000 20.000000 0.000000 0.000000 0.000000 -8.830000 0.000000 20.000000 0.000000 0.000000 24.000000 0.000000 0.000000 20.000000 -2.821973 5.313053 1.582548 -5.043330 -2.179044 -76.369064 1.733622 -37.083176 -10.648085 -0.560539 28.321323 -2.456517 -21.860001 0.000000 -30.000000 10.000000 0.000000 0.000000 10.000000 0.000000 0.000000 0.000000 0.000000 0.000000 -2.550000 0.000000 -20.000000 0.000000 0.000000 -24.000000 0.000000 0.000000 -20.000000 0.000000 0.000000 0.000000 0.000000 0.000000 -20.000000 0.000000 0.000000 -24.000000 0.000000 0.000000 -20.000000 0.000000 0.000000 0.000000 3.000000 0.000000 -20.000000 0.000000 0.000000 -24.000000 0.000000 0.000000 -20.000000 0.000000 0.000000 0.000000 8.830000 0.000000 -20.000000 0.000000 0.000000 -24.000000 0.000000 0.000000 -20.000000 
0.502333 91.598251 0.207613 168.316086 179.746704 -179.911652 10.668705 -3.494186 -0.001019 0.000003 3.662645 -0.000003 8.567552 -2.333478 1.000861 15.201227 -4.687236 -0.797896 0.000010 9.704328 -0.000008 7.872794 -3.757008 1.619033 -8.802658 -1.713527 -0.522067 7.419762 1.096581 0.321081 -3.257153 -0.220280 -0.327341 -0.000001 10.407469 4.051655 0.000003 12.142046 4.196352 -4.293564 8.864409 2.121765 0.930623 -0.738901 2.199182 34.638775 -19.114292 59.991371 82.029182 -21.345549 13.764131 -5.422565 -7.838158 -9.618252 21.860001 0.000000 30.000000 -10.000000 0.000000 0.000000 -10.000000 0.000000 0.000000 0.000000 0.000000 0.000000 2.550000 0.000000 20.000000 0.000000 0.000000 24.000000 0.000000 0.000000 20.000000 0.000000 0.000000 0.000000 0.000000 0.000000 20.000000 0.000000 0.000000 24.000000 0.000000 0.000000 20.000000 0.000000 0.000000 0.000000 -3.000000 0.000000 20.000000 0.000000 0.000000 24.000000 0.000000 0.000000 20.000000 0.000000 0.000000 0.000000 -8.830000 0.000000 20.000000 0.000000 0.000000 24.000000 0.000000 0.000000 20.000000 -2.826731 5.301580 1.586079 -5.044111 -2.162077 -76.363762 1.739002 -37.095425 -10.636274 -0.571117 28.318058 -2.468056 -21.860001 0.000000 -30.000000 10.000000 0.000000 0.000000 10.000000 0.000000 0.000000 0.000000 0.000000 0.000000 -2.550000 0.000000 -20.000000 0.000000 0.000000 -24.000000 0.000000 0.000000 -20.000000 0.000000 0.000000 0.000000 0.000000 0.000000 -20.000000 0.000000 0.000000 -24.000000 0.000000 0.000000 -20.000000 0.000000 0.000000 0.000000 3.000000 0.000000 -20.000000 0.000000 0.000000 -24.000000 0.000000 0.000000 -20.000000 0.000000 0.000000 0.000000 8.830000 0.000000 -20.000000 0.000000 0.000000 -24.000000 0.000000 0.000000 -20.000000 
